grf
version=1
nRows=9
nColumns=37
inDegrees=no
endheader
time	ground_force_1_vx	ground_force_1_vy	ground_force_1_vz	ground_force_1_px	ground_force_1_py	ground_force_1_pz	ground_moment_1_mx	ground_moment_1_my	ground_moment_1_mz	ground_force_2_vx	ground_force_2_vy	ground_force_2_vz	ground_force_2_px	ground_force_2_py	ground_force_2_pz	ground_moment_2_mx	ground_moment_2_my	ground_moment_2_mz	ground_force_3_vx	ground_force_3_vy	ground_force_3_vz	ground_force_3_px	ground_force_3_py	ground_force_3_pz	ground_moment_3_mx	ground_moment_3_my	ground_moment_3_mz	ground_force_4_vx	ground_force_4_vy	ground_force_4_vz	ground_force_4_px	ground_force_4_py	ground_force_4_pz	ground_moment_4_mx	ground_moment_4_my	ground_moment_4_mz
      5.67000000	      0.00000000	     -0.00000000	      0.00000000	      0.00000000	      0.00000000	      0.00000000	      0.00000000	      0.00000000	      0.00000000	      3.24190927	     49.49767685	   -385.08267212	   -272.80930870	  -1087.90791495	      0.00000000	      0.00000000	      0.00000000	    686.58172632	     -8.66443879	    -38.97999878	   -328.89257812	   -229.33612140	   -687.09085912	      0.00000000	      0.00000000	     -0.00000000	   -586.28825095	      0.00000000	     -0.00000000	      0.00000000	      0.00000000	      0.00000000	      0.00000000	      0.00000000	      0.00000000	      0.00000000
      5.68000000	      0.00000000	     -0.00000000	      0.00000000	      0.00000000	      0.00000000	      0.00000000	      0.00000000	      0.00000000	      0.00000000	      4.22240925	     49.82389832	   -391.55444336	   -277.35783171	  -1085.65661143	      0.00000000	      0.00000000	      0.00000000	    664.89558324	     -7.65678218	    -38.47827081	   -327.14862061	   -231.93348576	   -687.93021308	      0.00000000	     -0.00000000	     -0.00000000	   -567.71263581	      0.00000000	     -0.00000000	      0.00000000	      0.00000000	      0.00000000	      0.00000000	      0.00000000	      0.00000000	      0.00000000
      5.69000000	      0.00000000	     -0.00000000	      0.00000000	      0.00000000	      0.00000000	      0.00000000	      0.00000000	      0.00000000	      0.00000000	      5.50194597	     50.17994308	   -394.38299561	   -280.65691207	  -1083.63077725	      0.00000000	     -0.00000000	      0.00000000	    539.33909703	     -7.09497020	    -37.91986403	   -323.31689453	   -233.96716740	   -688.33634194	      0.00000000	      0.00000000	     -0.00000000	   -605.45999507	      0.00000000	     -0.00000000	      0.00000000	      0.00000000	      0.00000000	      0.00000000	      0.00000000	      0.00000000	      0.00000000
      5.70000000	      0.00000000	     -0.00000000	      0.00000000	      0.00000000	      0.00000000	      0.00000000	      0.00000000	      0.00000000	      0.00000000	      5.67926598	     50.53694153	   -398.15225220	   -284.01070742	  -1081.64885346	      0.00000000	      0.00000000	      0.00000000	    683.38486407	     -6.24006456	    -37.44839423	   -320.16857910	   -237.35097552	   -689.69841265	      0.00000000	      0.00000000	     -0.00000000	   -601.74407179	      0.00000000	     -0.00000000	      0.00000000	      0.00000000	      0.00000000	      0.00000000	      0.00000000	      0.00000000	      0.00000000
      5.71000000	      0.00000000	     -0.00000000	      0.00000000	      0.00000000	      0.00000000	      0.00000000	      0.00000000	      0.00000000	      0.00000000	      5.59059954	     51.66600037	   -401.68325806	   -286.50183398	  -1080.26806833	      0.00000000	      0.00000000	      0.00000000	    593.59414578	     -5.82541694	    -36.97720286	   -317.26101685	   -240.19324875	   -691.73611915	      0.00000000	      0.00000000	     -0.00000000	   -705.12953363	      0.00000000	     -0.00000000	      0.00000000	      0.00000000	      0.00000000	      0.00000000	      0.00000000	      0.00000000	      0.00000000
      5.72000000	      0.00000000	     -0.00000000	      0.00000000	      0.00000000	      0.00000000	      0.00000000	      0.00000000	      0.00000000	      0.00000000	      5.79868317	     51.99305344	   -403.68469238	   -289.69397079	  -1078.05428298	      0.00000000	      0.00000000	      0.00000000	    668.48244015	     -5.38174756	    -36.35913039	   -316.68041992	   -242.82223929	   -692.41821823	      0.00000000	      0.00000000	     -0.00000000	   -703.35383017	      0.00000000	     -0.00000000	      0.00000000	      0.00000000	      0.00000000	      0.00000000	      0.00000000	      0.00000000	      0.00000000
      5.73000000	      0.00000000	     -0.00000000	      0.00000000	      0.00000000	      0.00000000	      0.00000000	      0.00000000	      0.00000000	      0.00000000	      6.63076305	     51.81359100	   -406.74645996	   -291.91381446	  -1078.03342640	      0.00000000	      0.00000000	     -0.00000000	    456.89432851	     -4.82001189	    -35.82928043	   -316.21609497	   -246.13532841	   -692.61111870	      0.00000000	      0.00000000	     -0.00000000	   -571.84731323	      0.00000000	     -0.00000000	      0.00000000	      0.00000000	      0.00000000	      0.00000000	      0.00000000	      0.00000000	      0.00000000
      5.74000000	      0.00000000	     -0.00000000	      0.00000000	      0.00000000	      0.00000000	      0.00000000	      0.00000000	      0.00000000	      0.00000000	      7.25596857	     51.04236984	   -407.69024658	   -295.78477564	  -1076.62405067	      0.00000000	     -0.00000000	      0.00000000	    529.07870744	     -4.31751269	    -34.79874382	   -313.30590820	   -248.58035597	   -694.18634581	      0.00000000	      0.00000000	     -0.00000000	   -480.86135957	      0.00000000	     -0.00000000	      0.00000000	      0.00000000	      0.00000000	      0.00000000	      0.00000000	      0.00000000	      0.00000000
      5.75000000	      0.00000000	     -0.00000000	      0.00000000	      0.00000000	      0.00000000	      0.00000000	      0.00000000	      0.00000000	      0.00000000	      7.73133326	     50.29803848	   -407.91992188	   -298.12486728	  -1074.57363721	      0.00000000	     -0.00000000	      0.00000000	    590.42771075	     -2.83988323	    -34.29788183	   -309.46545410	   -251.56514226	   -695.05499723	      0.00000000	      0.00000000	     -0.00000000	   -620.37428904	      0.00000000	     -0.00000000	      0.00000000	      0.00000000	      0.00000000	      0.00000000	      0.00000000	      0.00000000	      0.00000000
